<?xml version="1.0" encoding="utf-8"?>
<!-- Generator: Adobe Illustrator 16.0.0, SVG Export Plug-In . SVG Version: 6.00 Build 0)  -->
<!DOCTYPE svg PUBLIC "-//W3C//DTD SVG 1.1//EN" "http://www.w3.org/Graphics/SVG/1.1/DTD/svg11.dtd">
<svg version="1.1" xmlns="http://www.w3.org/2000/svg" xmlns:xlink="http://www.w3.org/1999/xlink" x="0px" y="0px" width="100%"
	 height="100%" viewBox="0 0 1280 800" enable-background="new 0 0 1280 800" xml:space="preserve">
<g id="Layer_1">
	<path fill="#FFFFFF" stroke="#FFFFFF" stroke-miterlimit="10" d="M576.261,299.486c0,0-4.04,5.791,4.505,8.681
		s12.56,3.741,26.542-1.396c0,0-13.808-12.777-30.808-7.086V300"/>
</g>
<g id="Layer_2">
	<path fill="#999999" stroke="#999999" stroke-miterlimit="10" d="M400.807,502.773c0,0-44.578,23.353-44.578,62.607"/>
	<path fill="#999999" stroke="#999999" stroke-miterlimit="10" d="M418.879,513.416c0,0-46.671,33.389-41.408,67.124"/>
	<path fill="#999999" stroke="#999999" stroke-miterlimit="10" d="M431.064,527.749c0,0-41.101,43.151-30.257,64.838"/>
	<path fill="#999999" stroke="#999999" stroke-miterlimit="10" d="M887.555,513.416c0,0,38.554,18.931,38.554,67.124"/>
	<path fill="#999999" stroke="#999999" stroke-miterlimit="10" d="M867.072,527.749c0,0,40.283,34.718,33.997,64.838"/>
	<path fill="#999999" stroke="#999999" stroke-miterlimit="10" d="M846.59,538.957c0,0,35.664,24.715,32.893,59.654"/>
</g>
</svg>
