<?xml version="1.0" encoding="utf-8"?>
<!-- Generator: Adobe Illustrator 16.0.0, SVG Export Plug-In . SVG Version: 6.00 Build 0)  -->
<!DOCTYPE svg PUBLIC "-//W3C//DTD SVG 1.1//EN" "http://www.w3.org/Graphics/SVG/1.1/DTD/svg11.dtd">
<svg version="1.1" xmlns="http://www.w3.org/2000/svg" xmlns:xlink="http://www.w3.org/1999/xlink" x="0px" y="0px" width="100%"
	 height="100%" viewBox="0 0 1280 800" enable-background="new 0 0 1280 800" xml:space="preserve">
<g id="Layer_1">
	<path fill="#FFFFFF" stroke="#FFFFFF" stroke-miterlimit="10" d="M576.261,299.486c0,0-4.04,5.791,4.505,8.681
		s12.56,3.741,26.542-1.396c0,0-13.808-12.777-30.808-7.086V300"/>
	<g>
		<path fill="#F3FF00" stroke="#F3FF00" stroke-miterlimit="10" d="M778.373,383.265c0,0,152.244,56.852,117.557,166.284
			c0,0-20.236,22.578-41.434,21.613c-21.199-0.963-39.508-19.271-37.58-46.25c0,0-0.963,17.344-8.672,17.344
			s-14.455-13.49-7.709-31.799c6.744-18.307-22.162-34.688-22.162-34.688l-31.154-10.92c0,0,1.549,9.062,3.604,23.412
			c6.316,44.098,17.414,138.148,3.041,172.701c0,0-54.182,39-100.605,3.066c-1.283-74.518-11.275-78.41-11.275-78.41
			c-7.593,1.285-7.709,79.637-7.709,79.637c-56.531,32.119-102.647-2.211-102.647-2.211c-15.127-47.441-0.249-198.195-0.249-198.195
			c-3.854-3.854-25.697,10.92-25.697,10.92s-24.089,14.453-24.406,44.324c-0.318,29.871-8.356,29.871-18.955,27.943
			c-10.6-1.928,0.963-22.162,0.963-22.162c-32.761,61.668-79.013,13.49-79.013,13.49c-34.688-80.941,113.8-148.793,113.8-148.793
			S530.734,363.994,778.373,383.265z"/>
		<path fill="#FFFFFF" stroke="#000000" stroke-miterlimit="10" d="M790.898,533.584"/>
		<ellipse fill="#F3FF00" stroke="#F3FF00" stroke-miterlimit="10" cx="640.056" cy="269.345" rx="170.991" ry="169.372"/>
		<path fill="#F8CAC4" stroke="#F8CAC4" stroke-miterlimit="10" d="M565.056,331.232c0,0-18.032,71.667-12.874,82.272
			c5.159,10.604,96.782,46.725,176.854,1.637c0,0,10.465-91.669-23.096-84.898L565.056,331.232z"/>
		<path fill="#130C2A" stroke="#130C2A" stroke-miterlimit="10" d="M729.037,415.141c50.877-26.903,72.248-73.371,72.248-73.371
			c11.287-12.414,36.811-230.233,36.811-230.233c-3.873,14.454-151.322,131.086-157.719,136.023
			c-6.395,4.936-19.527,29.932-19.527,29.932l-2.924,50.677c0,0,61.338,0.254,64.688,9.057
			C734.049,357.249,729.037,415.141,729.037,415.141z"/>
		<path fill="#130C2A" stroke="#130C2A" stroke-miterlimit="10" d="M553.07,413.213c-50.876-26.903-72.248-73.371-72.248-73.371
			c-11.288-12.413-36.81-230.232-36.81-230.232c3.873,14.454,151.322,131.086,157.718,136.022
			c6.396,4.937,19.529,29.933,19.529,29.933l2.922,54.704c0,0-50.101,0.899-59.125,0.963
			C559.559,354.761,553.07,413.213,553.07,413.213z"/>
		<polygon fill="#FC0000" points="523,549 760,549 760,565.381 523,566.346 		"/>
		<path fill="none" stroke="#000000" stroke-miterlimit="10" d="M757.174,565.381"/>
		<path fill="#2A88FE" stroke="#2A88FE" stroke-miterlimit="10" d="M761.5,581.229l-111.998,23.973l-7.201-19.463
			c0,0-5.155,14.732-5.586,19.281S523.5,580.746,523.5,580.746v-14.4l238-0.965V581.229z"/>
		<path fill="#2A88FE" stroke="#2A88FE" stroke-miterlimit="10" d="M413.834,447.477l70.645,54.988c0,0,2.581,44.609-11.873,46.535
			c-2.148,0.643-24.745,12.217-9.323-23.125c0,0-22.781,53.961-68.242,22.162C349.582,516.238,405.757,454.998,413.834,447.477z"/>
		<path fill="#2A88FE" stroke="#2A88FE" stroke-miterlimit="10" d="M816.916,524.912c0,0-0.357,62.504,56.189,41.852
			c56.549-20.654,22.693-104.752,6.377-110.881l-82.002,36.973c0,0,3.055,17.602,1.252,23.711c0,0-7.834,22.729,9.512,25.689
			c0,0,5.41,1.875,9.387-8.672"/>
		<path fill="#2A88FE" stroke="#2A88FE" stroke-miterlimit="10" d="M527.889,663.988c15.116,13.146,48.142,17.986,48.142,17.986
			c45.28,0.051,58.242-16.719,58.242-16.719l0.627-30.422l-108.765-5.727C526.135,629.107,523.84,660.467,527.889,663.988z"/>
		<path fill="#2A88FE" stroke="#2A88FE" stroke-miterlimit="10" d="M653.258,664.029c27.795,31.436,87.537,7.668,87.537,7.668
			c23.125-7.068,19.303-42.59,19.303-42.59l-108.018,4.758L653.258,664.029z"/>
		<polygon fill="#130C2A" stroke="#130C2A" stroke-miterlimit="10" points="529.358,488.264 580.518,498.895 527.889,508.535 		"/>
		<path fill="#FFFFFF" stroke="#000000" stroke-miterlimit="10" d="M694.541,502.773"/>
		<polygon fill="#130C2A" stroke="#130C2A" stroke-miterlimit="10" points="526.879,526.5 567.35,526.5 526.135,538.957 		"/>
		<polygon fill="#130C2A" stroke="#130C2A" stroke-miterlimit="10" points="749.123,476.785 687.797,488.264 751.486,492.967 		"/>
		<polygon fill="#130C2A" stroke="#130C2A" stroke-miterlimit="10" points="754.727,518 694.541,526.838 757.174,533.584 		"/>
		<polygon fill="#130C2A" stroke="#130C2A" stroke-miterlimit="10" points="687.797,432.023 706.09,455.883 712.891,423.1 		"/>
		<polygon fill="#130C2A" stroke="#130C2A" stroke-miterlimit="10" points="562.873,421.117 567.35,455.883 586.28,429.75 		"/>
		<path fill="#F8CAC4" stroke="#F8CAC4" stroke-miterlimit="10" d="M531.377,464.85c-22.817-1.039-46.899,37.615-46.899,37.615
			l-70.645-54.988c15.889-18.584,66.718-51.09,66.718-51.09L531.377,464.85z"/>
		<path fill="#F8CAC4" stroke="#F8CAC4" stroke-miterlimit="10" d="M799.365,392.715c0,0,59.627,23.152,80.117,63.167
			l-82.002,36.973l-19.107-17.086l-26.887-9.424L799.365,392.715z"/>
		<path fill="#130C2A" stroke="#130C2A" stroke-miterlimit="10" d="M499.963,366.5h-38.607l70.021,98.156l2.719-62.664
			C534.097,401.992,494.182,367.5,499.963,366.5z"/>
		<polygon fill="#130C2A" stroke="#130C2A" stroke-miterlimit="10" points="777.41,376.5 810.17,376.5 748.01,469.668 
			729.037,415.127 		"/>
		<path fill="#FFFFFF" stroke="#FFFFFF" stroke-miterlimit="10" d="M607.018,304.894"/>
		<path fill="#FFFFFF" stroke="#FFFFFF" stroke-miterlimit="10" d="M576.261,299.486c0,0-4.04,5.791,4.505,8.681
			s12.56,3.741,26.542-1.396c0,0-13.808-12.777-30.808-7.086V300"/>
		<path fill="#FFFFFF" stroke="#FFFFFF" stroke-miterlimit="10" d="M702.984,299.486c0,0,3.662,5.791-4.883,8.681
			s-11.994,3.741-25.975-1.396c0,0,13.373-12.777,31.373-7.086V300"/>
	</g>
</g>
<g id="Layer_2">
</g>
</svg>
